<?xml version="1.0" encoding="utf-8"?>
<!-- Generator: Adobe Illustrator 23.0.0, SVG Export Plug-In . SVG Version: 6.00 Build 0)  -->
<svg version="1.1" xmlns="http://www.w3.org/2000/svg" xmlns:xlink="http://www.w3.org/1999/xlink" x="0px" y="0px"
	 viewBox="0 0 500 500" style="enable-background:new 0 0 500 500;" xml:space="preserve">
<style type="text/css">
	.st0{fill:url(#SVGID_1_);}
	.st1{fill:#FFFFFF;}
	.st2{fill:#E911BD;}
</style>
<g id="chocolate">
	
		<radialGradient id="SVGID_1_" cx="250.02" cy="249.0426" r="181.4624" gradientTransform="matrix(1 0 0 -1 0 502.58)" gradientUnits="userSpaceOnUse">
		<stop  offset="0" style="stop-color:#5E464D"/>
		<stop  offset="1" style="stop-color:#5E464D"/>
	</radialGradient>
	<path class="st0" d="M441.8,270c0-99.2-93-180.2-192.2-180.2S57.3,171.1,57.3,270.3c0,0.3-5,91.3-5,91.3c1,29.3,99,55.6,197.6,55.6
		c99.2,0,197.7-26.3,197.7-55.6C447.6,361.6,441.8,271.1,441.8,270z"/>
</g>
<g id="whiteFrosting">
	<path class="st1" d="M143,287.1c-0.6-10.9-2.1-21.8-4.3-32.5c-2.1-10.3-4.9-20.4-8.4-30.3c-1.8-4.8-3.6-9.6-5.7-14.2
		s-7.4-18.2-8.2-20.5c-0.8-2.3-1.8-4.5-2.9-6.7c-2-4.4-4.2-8.6-6.7-12.8l-0.3-0.6c-4.8-8.4-1.9-19,6.5-23.8
		c4.2-2.4,9.2-2.9,13.9-1.5l2,0.6l1.8,0.6l3.6,1.1c2.3,0.8,4.5,1.7,6.7,2.6c4.4,1.8,8.7,3.7,12.9,5.7c8.5,4,16.7,8.4,24.7,13.3
		c16.1,9.7,31.1,21.3,44.6,34.5c13.6,13.3,25.4,28.5,35,45c9.6,16.6,16.7,34.5,21.2,53.2l-33.6-2.1l0.8-2.4l0.9-2.9
		c0.6-2,1.1-4,1.6-6c1-4,2-8.1,2.7-12.2c1.5-8.3,2.6-16.6,3.1-25c1.1-16.7,0-33.5-3.2-49.9c-3.2-16.3-8.7-32.1-16.3-46.9
		c-7.7-14.8-17.3-28.6-28.6-40.9l-0.2-0.2c-6.5-7.1-6-18.2,1.1-24.7c3.8-3.5,9-5.1,14.1-4.4l1.5,0.2l1.2,0.2l2.3,0.4
		c1.5,0.3,3,0.5,4.5,0.9c2.9,0.6,5.8,1.3,8.7,2c5.7,1.5,11.3,3.1,16.9,5c33.2,11.3,63.6,29.4,89.4,53.1
		c17.1,15.8,31.9,33.9,44.1,53.7c12,19.7,21.7,40.6,28.9,62.6l-32.6-2l0.6-1.4l0.7-2c0.5-1.3,0.9-2.7,1.3-4c0.9-2.8,1.6-5.7,2.1-8.5
		c0.5-2.9,0.7-5.9,1.1-8.8c0.4-2.9,1-5.8,1.5-8.7c2-11.9,1.6-24.1-1.2-35.8c-1.5-6.1-3.7-12-6.4-17.7c-2.8-5.9-6.2-11.5-10-16.8
		c-4-5.5-8.4-10.6-13.1-15.5c-4.9-4.9-10.1-9.6-15.5-14c6.6,2.5,13.1,5.4,19.3,8.8c6.4,3.4,12.5,7.4,18.3,11.8
		c5.9,4.6,11.4,9.7,16.3,15.4c5.1,5.8,9.5,12.2,13.2,19c7.6,14.1,12.1,29.6,13.3,45.6c0.4,4,0.4,8,0,12c-0.5,4-1.3,7.9-2.3,11.8
		c-0.9,4-1.8,7.8-3,11.6c-0.6,2-1.2,3.9-2,5.8l-1,2.9l-0.6,1.5l-0.8,1.9c-3.8,8.8-14.1,12.9-22.9,9.1c-4.5-2-8-5.8-9.6-10.5
		l-0.2-0.5c-6.3-19.3-14.8-37.8-25.4-55.1c-10.5-17.1-23.2-32.6-37.9-46.2c-22.1-20.5-48.3-36-76.8-45.8c-4.7-1.6-9.5-3-14.3-4.2
		c-2.4-0.6-4.8-1.2-7.1-1.7l-3.5-0.7l-1.7-0.3l-1.3-0.2l15-29.4c13.4,14.6,24.8,30.9,34,48.6c9.1,17.7,15.7,36.7,19.5,56.2
		c3.8,19.4,5.1,39.2,3.9,59c-0.6,9.8-1.8,19.6-3.6,29.3c-0.9,4.9-2,9.7-3.2,14.5c-0.6,2.4-1.3,4.8-2,7.3l-1.2,3.7l-0.6,2l-0.8,2.2
		c-3.2,9.1-13.2,13.9-22.3,10.6c-5.5-2-9.7-6.6-11.1-12.3l-0.1-0.5c-3.7-15.4-9.6-30.1-17.5-43.8c-8-13.8-17.8-26.4-29.2-37.5
		c-11.6-11.2-24.4-21.1-38.2-29.5c-6.9-4.2-14.1-8-21.4-11.5c-3.7-1.7-7.4-3.3-11.1-4.8c-1.9-0.7-3.7-1.5-5.6-2.1l-2.7-1l-2.4-0.8
		l20-26c3.1,5.2,5.9,10.5,8.4,16c1.3,2.7,2.4,5.5,3.6,8.2c1.2,2.7,2.5,5.5,3.5,8.3c0.5,1.4,1,2.8,1.3,4.3c0.3,1.5,0.6,3,0.8,4.5
		c0.4,3,0.7,6,1,8.9c0.5,6,0.7,11.9,0.7,17.7c-0.2,11.6-1.4,23.1-3.6,34.5c-1.1,5.6-2.5,11.1-4.1,16.5
		C147.1,276.5,145.2,281.9,143,287.1z"/>
</g>
<g id="pinkFrosting">
	<path class="st2" d="M143,287.1c0.9-10.8,0.9-21.6,0-32.4c-0.8-10.6-2.4-21.2-4.7-31.6c-1.2-5.2-2.6-10.2-4.2-15.3
		c-1.6-5-3.5-9.8-5.2-14.8c-0.8-2.5-1.7-4.9-2.6-7.4c-0.9-2.4-2-4.8-3.1-7.2c-2.1-4.7-4.6-9.3-7.2-13.8l-0.1-0.2
		c-1.9-3.3-0.7-7.4,2.5-9.3c0,0,0,0,0,0c1.6-0.9,3.6-1.2,5.4-0.6c4.7,1.4,8.7,3,13,4.7c4.3,1.7,8.3,3.5,12.3,5.4
		c8.1,3.8,16,8.1,23.7,12.7c15.4,9.3,29.8,20.3,42.7,32.9c13,12.6,24.2,27,33.2,42.6c9,15.7,15.8,32.7,20,50.3l-13-0.8
		c0.6-1.8,1.3-4,2-6c0.7-2,1.2-4.2,1.8-6.4c1.1-4.3,2-8.6,2.8-12.9c1.6-8.7,2.7-17.5,3.2-26.3c1.1-17.7,0-35.4-3.4-52.8
		c-3.4-17.3-9.2-34.1-17.2-49.8c-8.1-15.7-18.3-30.2-30.3-43.2l0,0c-2.5-2.8-2.4-7.1,0.4-9.6c1.5-1.4,3.6-2,5.6-1.7
		c3.2,0.4,5.8,0.9,8.6,1.5c2.8,0.6,5.5,1.2,8.2,2c5.4,1.3,10.8,2.9,16,4.8c31.7,10.8,60.9,28,85.5,50.8
		c16.4,15.2,30.6,32.5,42.2,51.5c11.6,18.9,20.9,39.2,27.8,60.3l-12.7-0.8c0.5-1.1,1.2-2.8,1.7-4.3s1.1-3,1.5-4.6
		c0.9-3.2,1.7-6.4,2.3-9.6c1.2-6.4,1.9-12.9,2.5-19.4c1.1-13.1-0.6-26.3-4.9-38.8c-4.5-12.7-11.4-24.3-20.4-34.4
		c-9.2-10.3-19.8-19.3-31.4-26.7c12.6,6.1,24.4,13.9,34.9,23.3c10.7,9.6,19.4,21.3,25.5,34.4c6.1,13.4,9.4,27.9,9.6,42.6
		c0.1,3.7,0,7.4-0.4,11c-0.4,3.7-1.1,7.3-1.9,10.9c-0.8,3.6-1.7,7.2-2.8,10.7c-0.5,1.8-1.1,3.5-1.7,5.3c-0.7,1.8-1.3,3.4-2.2,5.4
		c-1.6,3.4-5.6,4.9-9,3.4c-1.7-0.8-3-2.2-3.6-4v-0.1c-6.6-20.1-15.4-39.4-26.5-57.4c-11-18-24.5-34.3-39.9-48.6
		c-23.2-21.4-50.7-37.8-80.7-47.9c-5-1.7-10-3.2-15-4.5c-2.5-0.6-5.1-1.2-7.6-1.8c-2.5-0.5-5.2-1-7.4-1.3l5.8-11.4
		c12.8,13.9,23.7,29.4,32.4,46.2c8.6,16.8,14.9,34.8,18.5,53.4c3.6,18.5,4.8,37.4,3.6,56.3c-0.6,9.4-1.7,18.7-3.5,28
		c-0.9,4.6-1.9,9.2-3,13.8c-0.6,2.3-1.2,4.6-1.9,6.9c-0.7,2.3-1.4,4.5-2.3,7c-1.3,3.5-5.2,5.3-8.8,4c-2.1-0.8-3.7-2.5-4.2-4.7v-0.2
		c-3.9-16.4-10.2-32.1-18.6-46.7c-8.5-14.6-18.9-27.9-31-39.7c-12.1-11.8-25.6-22.2-40.1-31c-7.3-4.4-14.7-8.4-22.4-12
		c-3.8-1.8-7.7-3.5-11.6-5.1c-2-0.8-4-1.6-6-2.3c-2-0.7-4-1.4-5.8-2l7.8-10c5.7,9.8,10.5,20,14.4,30.6c1.8,5.3,3.1,10.8,4,16.4
		c1,5.5,1.7,11.1,2.2,16.6c0.9,11,0.9,22.1,0,33.2c-0.4,5.5-1.1,11-2,16.4C145.6,276.4,144.4,281.8,143,287.1z"/>
</g>
</svg>
